<?xml version="1.0" encoding="UTF-8" standalone="no"?>
<svg
   xmlns:xhtml="http://www.w3.org/1999/xhtml"
   xmlns:dc="http://purl.org/dc/elements/1.1/"
   xmlns:cc="http://creativecommons.org/ns#"
   xmlns:rdf="http://www.w3.org/1999/02/22-rdf-syntax-ns#"
   xmlns:svg="http://www.w3.org/2000/svg"
   xmlns="http://www.w3.org/2000/svg"
   xmlns:sodipodi="http://sodipodi.sourceforge.net/DTD/sodipodi-0.dtd"
   xmlns:inkscape="http://www.inkscape.org/namespaces/inkscape"
   version="1.1"
   width="504.19055"
   height="287.87778"
   id="svg2"
   inkscape:version="0.91 r13725"
   sodipodi:docname="logo2.svg"
   inkscape:export-filename="/home/asem/GP/wevote/web/app/client/images/logo2.svg.png"
   inkscape:export-xdpi="90"
   inkscape:export-ydpi="90">
  <metadata
     id="metadata520">
    <rdf:RDF>
      <cc:Work
         rdf:about="">
        <dc:format>image/svg+xml</dc:format>
        <dc:type
           rdf:resource="http://purl.org/dc/dcmitype/StillImage" />
        <dc:title />
      </cc:Work>
    </rdf:RDF>
  </metadata>
  <sodipodi:namedview
     pagecolor="#ffffff"
     bordercolor="#666666"
     borderopacity="1"
     objecttolerance="10"
     gridtolerance="10"
     guidetolerance="10"
     inkscape:pageopacity="0"
     inkscape:pageshadow="2"
     inkscape:window-width="1301"
     inkscape:window-height="744"
     id="namedview518"
     showgrid="false"
     fit-margin-top="0"
     fit-margin-left="0"
     fit-margin-right="0"
     fit-margin-bottom="0"
     inkscape:zoom="0.14890592"
     inkscape:cx="-493.4853"
     inkscape:cy="-111.42456"
     inkscape:window-x="65"
     inkscape:window-y="24"
     inkscape:window-maximized="1"
     inkscape:current-layer="svg2" />
  <xhtml:style />
  <defs
     id="defs4" />
  <g
     id="g12"
     transform="matrix(-0.04327591,0.04327591,-0.04327591,-0.04327591,139.0763,152.08996)">
    <g
       id="g14">
      <g
         id="g16">
        <g
           id="g18"
           transform="matrix(0.1,0,0,-0.1,0,512)">
          <g
             id="g20">
            <path
               style="fill:#000000;stroke:#000000;stroke-miterlimit:10;stroke-opacity:0"
               inkscape:connector-curvature="0"
               id="path22"
               stroke-miterlimit="10"
               d="m 6975.3,4891.7 c -300.5,-388.5 -419.1,-943.6 -335,-1563.8 l 11.5,-82.3 195.2,-53.6 c 105.3,-28.7 321.6,-95.7 480.4,-145.5 157,-49.8 287.1,-90 289,-88.1 2,1.9 -26.8,120.6 -63.1,262.2 -61.3,231.6 -68.9,285.2 -70.8,516.8 -1.9,298.6 21.1,392.4 141.7,558.9 l 74.7,105.3 -312,310.1 -312,310.1 -99.6,-130.1 z" />
          </g>
          <g
             id="g24">
            <path
               style="fill:#000000;stroke:#000000;stroke-miterlimit:10;stroke-opacity:0"
               inkscape:connector-curvature="0"
               id="path26"
               stroke-miterlimit="10"
               d="M 5606.8,3132.7 C 5128.3,3029.3 4711,2734.6 4517.7,2361.3 c -157,-302.4 -212.5,-568.5 -214.4,-1016.4 0,-183.8 5.7,-356 13.4,-384.7 11.5,-38.3 34.4,-53.6 114.8,-74.6 55.5,-13.4 269.9,-78.5 474.7,-145.5 204.8,-67 375.2,-116.8 379,-114.8 3.8,3.8 -13.4,78.5 -34.5,166.5 -53.6,206.7 -93.8,419.2 -80.4,419.2 11.5,0 1129.3,-832.6 1161.8,-867.1 30.6,-28.7 -371.3,-1.9 -618.2,44 -283.3,51.7 -656.5,147.4 -999.2,258.4 C 4219,807.1 4115.6,830.1 3832.3,841.5 2749.1,887.5 2037,276.9 1949,-772 c -13.4,-160.8 19.1,-564.6 49.8,-622.1 9.6,-19.1 61.2,-42.1 116.8,-55.5 78.5,-19.1 553.2,-155 842.2,-241.2 28.7,-7.6 28.7,-1.9 3.8,91.9 -78.5,296.7 -151.2,840.3 -111,838.4 21.1,-1.9 951.3,-1244.1 939.8,-1255.6 -17.2,-17.2 -480.4,86.1 -826.9,183.8 -423,118.7 -872.8,229.7 -1215.4,298.6 -346.4,70.8 -685.2,74.7 -905.3,11.5 -231.6,-67 -472.8,-199.1 -669.9,-371.3 l -72.7,-63.1 313.9,-312 313.9,-313.9 72.7,49.8 c 139.7,95.7 317.7,135.9 583.8,134 348.4,-1.9 599.1,-55.5 1322.6,-283.3 648.9,-204.8 909.2,-250.7 1353.2,-235.4 225.9,5.8 336.9,19.1 451.7,49.8 497.7,137.8 857.5,444 1045.1,893.8 109.1,264.1 141.7,451.7 141.7,849.9 1.9,195.2 -3.8,375.1 -11.5,402 -11.5,42.1 -36.4,55.5 -181.8,93.8 -91.9,26.8 -308.2,91.9 -478.5,145.5 -172.3,55.5 -312,93.8 -312,86.1 0,-9.6 21.1,-95.7 45.9,-195.3 55.5,-208.6 93.8,-417.2 80.4,-430.7 -5.7,-5.7 -292.9,212.5 -641.2,484.3 -419.2,329.2 -624,499.6 -608.7,511 34.5,23 321.6,-3.8 528.3,-47.9 99.5,-21 354.1,-93.8 564.6,-160.8 1117.8,-359.8 1604,-434.5 2103.6,-321.6 516.8,118.7 934,474.7 1133.1,974.3 99.6,250.7 130.2,457.5 118.7,813.5 -15.3,432.6 -7.7,411.5 -174.2,459.4 -74.6,23 -283.3,88 -465.1,143.6 -179.9,57.4 -335,105.3 -346.4,105.3 -9.6,0 3.8,-70.8 28.7,-157 68.9,-237.3 103.3,-472.8 97.6,-650.8 l -5.8,-158.9 -107.2,134 c -57.4,74.6 -294.8,373.2 -522.6,668 l -417.2,534 109.1,-15.3 c 189.5,-23 478.5,-101.4 914.9,-246.9 468.9,-157 702.4,-223.9 957,-269.9 398.1,-72.7 796.2,-68.9 1060.4,11.5 170.3,51.7 421.1,183.8 593.4,310.1 l 137.8,101.5 -310.1,310.1 -310.1,308.2 -86.1,-65.1 c -145.5,-111 -298.6,-153.1 -555.1,-151.2 -292.8,1.9 -476.6,45.9 -1138.9,266.1 -468.9,155 -581.9,185.7 -890,237.3 -405.8,66.7 -769.5,78.2 -1003,28.4 z m 926.4,-1581 c 321.6,-411.5 585.7,-761.8 589.6,-779 5.7,-32.5 -99.6,-212.5 -124.4,-212.5 -32.6,0 -1560,1546.6 -1548.5,1567.6 24.9,38.3 174.2,114.8 279.4,143.6 216.3,57.4 151.2,116.8 803.9,-719.7 z m -426.9,-325.4 c 424.9,-424.9 771.3,-777.1 771.3,-784.8 0,-19.1 -202.9,-91.9 -256.5,-91.9 -26.8,0 -306.3,195.2 -740.7,518.7 -382.8,285.2 -706.3,528.3 -719.7,541.7 -30.6,28.7 3.8,298.6 53.6,413.4 45.9,103.4 90,172.3 109.1,172.3 7.8,0.1 359.9,-346.4 782.9,-769.4 z m -2004,-1873.8 c 821.1,-641.2 773.3,-589.5 727.3,-802 -23,-103.4 -99.5,-275.6 -130.2,-294.8 -7.7,-5.8 -367.5,342.6 -796.3,771.4 -777.1,777.1 -782.9,782.8 -736.9,811.6 72.7,45.9 158.9,88.1 179.9,90 11.6,-0.1 350.4,-258.5 756.2,-576.2 z m 453.6,-1240.4 c -55.5,-67 -342.6,-153.1 -514.9,-155 -23,0 -225.9,254.6 -581.9,733.1 -302.4,402 -555.1,740.8 -564.6,750.3 -17.2,23 44,172.3 93.8,225.8 28.7,32.6 70.8,-5.7 811.6,-746.5 648.9,-646.9 775.2,-782.8 756,-807.7 z" />
          </g>
          <g
             id="g28">
            <path
               style="fill:#000000;stroke:#000000;stroke-miterlimit:10;stroke-opacity:0"
               inkscape:connector-curvature="0"
               id="path30"
               stroke-miterlimit="10"
               d="m 2408.4,-2894.6 c 151.2,-545.5 135.9,-934.1 -45.9,-1186.7 l -57.4,-78.5 312,-312 310.1,-310.1 82.3,111 c 254.6,342.6 402,861.3 379,1324.6 -17.2,325.4 -17.2,325.4 -176.1,369.4 -74.6,19.1 -290.9,82.3 -482.3,139.7 -191.4,57.4 -352.4,105.2 -358.1,105.2 -3.8,0 11.5,-72.7 36.4,-162.6 z" />
          </g>
        </g>
      </g>
    </g>
  </g>
  <g
     id="g32"
     transform="matrix(0,-1,1,0,206.8873,245.50912)">
    <g
       id="g34">
      <g
         id="g36"
         transform="scale(0.5,0.50625974)">
        <g
           id="g38">
          <path
             style="fill:#ffffff;fill-opacity:0.00799997;stroke:none"
             inkscape:connector-curvature="0"
             id="path40"
             d="m 100,50 a 50,50 0 1 0 -2.5e-5,0.05 z" />
          <g
             id="g42"
             transform="scale(2,1.9752706)">
            <path
               style="fill:none;stroke:#660000;stroke-width:2;stroke-miterlimit:10"
               inkscape:connector-curvature="0"
               id="path44"
               stroke-miterlimit="10"
               d="m 25,0 m 0,0 C 38.807117,0 50,11.333012 50,25.312987 50,39.292962 38.807117,50.625974 25,50.625974 11.192883,50.625974 0,39.292962 0,25.312987 0,11.333012 11.192883,0 25,0 Z" />
          </g>
        </g>
      </g>
    </g>
  </g>
  <g
     id="g46"
     transform="matrix(0,-1,1,0,374.4706,170.50912)">
    <g
       id="g48">
      <g
         id="g50"
         transform="scale(0.5,0.50625974)">
        <g
           id="g52">
          <path
             style="fill:#ffffff;fill-opacity:0.00799997;stroke:none"
             inkscape:connector-curvature="0"
             id="path54"
             d="m 100,50 a 50,50 0 1 0 -2.5e-5,0.05 z" />
          <g
             id="g56"
             transform="scale(2,1.9752706)">
            <path
               style="fill:none;stroke:#08233f;stroke-width:2;stroke-miterlimit:10"
               inkscape:connector-curvature="0"
               id="path58"
               stroke-miterlimit="10"
               d="m 25,0 m 0,0 C 38.807117,0 50,11.333012 50,25.312987 50,39.292962 38.807117,50.625974 25,50.625974 11.192883,50.625974 0,39.292962 0,25.312987 0,11.333012 11.192883,0 25,0 Z" />
          </g>
        </g>
      </g>
    </g>
  </g>
  <g
     id="g60"
     transform="matrix(0,-1,1,0,314.1614,286.87778)">
    <g
       id="g62">
      <g
         id="g64"
         transform="scale(0.49381766,0.5)">
        <g
           id="g66">
          <path
             style="fill:#ffffff;fill-opacity:0.00799997;stroke:none"
             inkscape:connector-curvature="0"
             id="path68"
             d="m 100,50 a 50,50 0 1 0 -2.5e-5,0.05 z" />
          <g
             id="g70"
             transform="scale(2.025039,2)">
            <path
               style="fill:none;stroke:#08233f;stroke-width:2;stroke-miterlimit:10"
               inkscape:connector-curvature="0"
               id="path72"
               stroke-miterlimit="10"
               d="m 24.690883,0 m 0,0 c 13.636397,0 24.690883,11.192883 24.690883,25 0,13.807117 -11.054486,25 -24.690883,25 C 11.054486,50 0,38.807117 0,25 0,11.192883 11.054486,0 24.690883,0 Z" />
          </g>
        </g>
      </g>
    </g>
  </g>
  <g
     id="g74"
     transform="matrix(0,-1,1,0,313.8484,230.50912)">
    <g
       id="g76">
      <g
         id="g78"
         transform="scale(0.5,0.50625974)">
        <g
           id="g80">
          <path
             style="fill:#ffffff;fill-opacity:0.00799997;stroke:none"
             inkscape:connector-curvature="0"
             id="path82"
             d="m 100,50 a 50,50 0 1 0 -2.5e-5,0.05 z" />
          <g
             id="g84"
             transform="scale(2,1.9752706)">
            <path
               style="fill:none;stroke:#08233f;stroke-width:2;stroke-miterlimit:10"
               inkscape:connector-curvature="0"
               id="path86"
               stroke-miterlimit="10"
               d="m 25,0 m 0,0 C 38.807118,0 50,11.333012 50,25.312987 50,39.292962 38.807118,50.625974 25,50.625974 11.192883,50.625974 0,39.292962 0,25.312987 0,11.333012 11.192883,0 25,0 Z" />
          </g>
        </g>
      </g>
    </g>
  </g>
  <g
     id="g88"
     transform="matrix(-0.70710678,0.70710678,-0.70710678,-0.70710678,138.7177,152.59861)">
    <g
       id="g90">
      <g
         id="g92"
         transform="scale(0.59258119,0.6)">
        <g
           id="g94">
          <path
             style="fill:#ffffff;fill-opacity:0.00799997;stroke:none"
             inkscape:connector-curvature="0"
             id="path96"
             d="m 100,50 a 50,50 0 1 0 -2.5e-5,0.05 z" />
          <g
             id="g98"
             transform="scale(1.6875325,1.6666667)">
            <path
               style="fill:none;stroke:#08233f;stroke-width:7;stroke-miterlimit:10"
               inkscape:connector-curvature="0"
               id="path100"
               stroke-miterlimit="10"
               d="m 29.62906,0 m 0,0 c 16.363676,0 29.629059,13.431459 29.629059,30 0,16.568541 -13.265383,30 -29.629059,30 C 13.265383,60 0,46.568541 0,30 0,13.431459 13.265383,0 29.62906,0 Z" />
          </g>
        </g>
      </g>
    </g>
  </g>
  <g
     id="g102"
     transform="translate(121.2961,160.0202)">
    <g
       id="g104">
      <g
         id="g106"
         transform="translate(-1598.624,-809.95374)">
        <g
           id="g108">
          <path
             style="fill:none;stroke:#0b599f;stroke-width:2;stroke-miterlimit:10"
             inkscape:connector-curvature="0"
             id="path110"
             stroke-miterlimit="10"
             d="m 1603.124,814.45374 42.2238,0 0,54.13452 42.2238,0" />
        </g>
      </g>
    </g>
  </g>
  <g
     id="g112"
     transform="translate(253.0133,116.62735)">
    <g
       id="g114">
      <g
         id="g116"
         transform="translate(-1730.3412,-766.56089)">
        <g
           id="g118">
          <path
             style="fill:none;stroke:#0b599f;stroke-width:2;stroke-miterlimit:10"
             inkscape:connector-curvature="0"
             id="path120"
             stroke-miterlimit="10"
             d="m 1734.8412,771.06089 26.4786,0 0,24.38177 90.4787,0" />
        </g>
      </g>
    </g>
  </g>
  <g
     id="g122"
     transform="translate(253.0133,216.00912)">
    <g
       id="g124">
      <g
         id="g126"
         transform="translate(-1730.3412,-865.94266)">
        <g
           id="g128">
          <path
             style="fill:none;stroke:#0b599f;stroke-width:2;stroke-miterlimit:10"
             inkscape:connector-curvature="0"
             id="path130"
             stroke-miterlimit="10"
             d="m 1734.8412,870.44266 28.324,0 0,41.67777 28.3241,0" />
        </g>
      </g>
    </g>
  </g>
  <g
     id="g132"
     transform="translate(253.0133,201.00912)">
    <g
       id="g134">
      <g
         id="g136"
         transform="translate(-1730.3412,-850.94266)">
        <g
           id="g138">
          <path
             style="fill:none;stroke:#0b599f;stroke-width:2;stroke-miterlimit:10"
             inkscape:connector-curvature="0"
             id="path140"
             stroke-miterlimit="10"
             d="m 1734.8412,870.44266 28.1675,0 0,-15 28.1676,0" />
        </g>
      </g>
    </g>
  </g>
  <g
     id="g142"
     transform="translate(420.5965,105.88177)">
    <g
       id="g144">
      <g
         id="g146"
         transform="translate(-1897.9244,-755.81531)">
        <g
           id="g148">
          <path
             style="fill:none;stroke:#0b599f;stroke-width:2;stroke-miterlimit:10"
             inkscape:connector-curvature="0"
             id="path150"
             stroke-miterlimit="10"
             d="m 1902.4244,795.44266 14.1066,0 0,-35.12735 14.1066,0" />
        </g>
      </g>
    </g>
  </g>
  <g
     id="g152"
     transform="matrix(0,-1,1,0,453.3097,135.38177)">
    <g
       id="g154">
      <g
         id="g156"
         transform="scale(0.4950495,0.50124727)">
        <g
           id="g158">
          <g
             id="g160">
            <path
               style="fill:#fce5cd;stroke:#000000;stroke-width:2;stroke-miterlimit:10;stroke-opacity:0"
               inkscape:connector-curvature="0"
               id="path162"
               stroke-miterlimit="10"
               d="m 100.505,50.505 a 50,50 0 1 0 -2e-5,0.05 z" />
          </g>
        </g>
        <g
           id="g164">
          <g
             id="g166">
            <path
               style="fill:#000000;fill-opacity:0;stroke:#073763;stroke-width:2;stroke-miterlimit:10"
               inkscape:connector-curvature="0"
               id="path168"
               stroke-miterlimit="10"
               d="m 100.5,50.5 a 50,50 0 1 0 -2e-5,0.05 z" />
          </g>
          <g
             id="g170">
            <path
               style="fill:#000000;fill-opacity:0;stroke:#073763;stroke-width:2;stroke-miterlimit:10"
               inkscape:connector-curvature="0"
               id="path172"
               stroke-miterlimit="10"
               d="m 95.5,50.5 a 45,45 0 1 0 -2.2e-5,0.045 z" />
          </g>
          <g
             id="g174">
            <path
               style="fill:#000000;fill-opacity:0;stroke:#073763;stroke-width:5;stroke-linecap:round;stroke-miterlimit:10"
               inkscape:connector-curvature="0"
               id="path176"
               stroke-miterlimit="10"
               d="M 23.275,77.725 77.724,23.275" />
          </g>
          <g
             id="g178">
            <path
               style="fill:#000000;fill-opacity:0;stroke:#073763;stroke-width:5;stroke-linecap:round;stroke-miterlimit:10"
               inkscape:connector-curvature="0"
               id="path180"
               stroke-miterlimit="10"
               d="M 77.725,77.724 23.275,23.276" />
          </g>
        </g>
      </g>
    </g>
  </g>
  <g
     id="g182"
     transform="matrix(-0.90630779,0.42261826,-0.42261826,-0.90630779,70.839804,171.42584)">
    <g
       id="g184">
      <g
         id="g186"
         transform="scale(0.7,0.1)">
        <g
           id="g188">
          <path
             style="fill:none;stroke:none"
             inkscape:connector-curvature="0"
             id="path190"
             d="m 10,0 80,0 q 10,0 10,10 l 0,80 q 0,10 -10,10 l -80,0 Q 0,100 0,90 L 0,10 Q 0,0 10,0 Z" />
          <g
             id="g192"
             transform="scale(1.4285714,10)">
            <path
               style="fill:#ffffff;fill-opacity:0.00799997;stroke:none"
               inkscape:connector-curvature="0"
               id="path194"
               d="M 10,0 60,0 Q 70,0 70,10 L 70,0 Q 70,10 60,10 L 10,10 Q 0,10 0,0 L 0,10 Q 0,0 10,0 Z" />
            <path
               style="fill:none;stroke:#08233f;stroke-width:7;stroke-miterlimit:10"
               inkscape:connector-curvature="0"
               id="path196"
               stroke-miterlimit="10"
               d="m 10,0 m 0,0 50,0 Q 70,0 70,10 L 70,0 Q 70,10 60,10 L 10,10 Q 0,10 0,0 L 0,10 Q 0,0 10,0 Z" />
          </g>
        </g>
      </g>
    </g>
  </g>
  <g
     id="g198"
     transform="matrix(0.04693914,0,0,0.04693914,313.7269,181.86188)">
    <g
       id="g200">
      <g
         id="g202">
        <g
           id="g204"
           transform="matrix(0.1,0,0,-0.1,0,511)">
          <g
             id="g206">
            <path
               style="fill:#000000;stroke:#000000;stroke-miterlimit:10;stroke-opacity:0"
               inkscape:connector-curvature="0"
               id="path208"
               stroke-miterlimit="10"
               d="m 3868.9,4555.4 c -209.1,-113.3 -187.3,-405.1 34.9,-496.6 213.4,-89.3 442.1,150.3 339.8,355 -76.3,156.8 -239.7,217.8 -374.7,141.6 z" />
          </g>
          <g
             id="g210">
            <path
               style="fill:#000000;stroke:#000000;stroke-miterlimit:10;stroke-opacity:0"
               inkscape:connector-curvature="0"
               id="path212"
               stroke-miterlimit="10"
               d="m 6264.8,4557.6 c -91.5,-45.7 -165.5,-193.8 -143.8,-291.9 34.8,-156.8 204.7,-263.6 348.5,-215.6 165.5,54.5 239.6,224.3 163.4,379 -71.9,152.4 -217.8,202.5 -368.1,128.5 z" />
          </g>
          <g
             id="g214">
            <path
               style="fill:#000000;stroke:#000000;stroke-miterlimit:10;stroke-opacity:0"
               inkscape:connector-curvature="0"
               id="path216"
               stroke-miterlimit="10"
               d="m 2440,3827.9 c -132.9,-104.5 -148.1,-291.9 -30.5,-409.5 209.1,-206.9 559.8,19.6 448.7,289.7 -47.9,111.1 -132.9,167.7 -254.8,167.7 -71.9,0 -119.8,-13 -163.4,-47.9 z" />
          </g>
          <g
             id="g218">
            <path
               style="fill:#000000;stroke:#000000;stroke-miterlimit:10;stroke-opacity:0"
               inkscape:connector-curvature="0"
               id="path220"
               stroke-miterlimit="10"
               d="m 7602.1,3804 c -169.9,-169.9 -85,-426.9 150.3,-466.1 182.9,-28.3 350.7,165.5 298.4,344.1 -37,124.2 -132.9,193.8 -267.9,193.8 -93.7,0 -117.6,-8.7 -180.8,-71.8 z" />
          </g>
          <g
             id="g222">
            <path
               style="fill:#000000;stroke:#000000;stroke-miterlimit:10;stroke-opacity:0"
               inkscape:connector-curvature="0"
               id="path224"
               stroke-miterlimit="10"
               d="M 5114.7,3677.6 C 4964.4,3634 4877.3,3442.4 4944.8,3303 c 104.6,-220 398.6,-217.8 494.4,2.2 37,82.8 41.4,111.1 19.6,180.8 -23.9,82.8 -132.9,193.8 -187.3,193.8 -15.3,0 -41.4,4.4 -58.8,8.7 -15.2,4.4 -58.8,0 -98,-10.9 z" />
          </g>
          <g
             id="g226">
            <path
               style="fill:#000000;stroke:#000000;stroke-miterlimit:10;stroke-opacity:0"
               inkscape:connector-curvature="0"
               id="path228"
               stroke-miterlimit="10"
               d="m 1100.5,2873.9 c -26.1,-26.1 -43.6,-71.9 -43.6,-119.8 0,-67.5 21.8,-98 148.1,-224.3 246.1,-248.3 446.5,-370.3 1052,-642.5 222.2,-100.2 474.8,-228.7 559.8,-283.1 191.7,-128.5 363.8,-313.7 459.6,-492.3 l 74.1,-139.4 -95.8,-78.4 C 3202.4,850.5 3124,776.5 3080.5,730.7 l -80.6,-84.9 -104.6,45.7 C 2731.9,759 2479.2,820 2048,894 1194.2,1037.8 989.4,1101 355.6,1429.8 281.5,1469 192.2,1434.2 144.3,1347 87.7,1246.8 139.9,1174.9 344.7,1057.3 728,839.5 1174.5,702.3 1871.5,586.8 2331.1,508.4 2564.1,456.1 2740.6,390.8 2843,351.6 2864.8,336.4 2851.7,308 2843,286.2 2832.1,186 2825.6,81.5 l -8.7,-187.3 -176.4,-69.7 c -392.1,-154.6 -786.3,-206.9 -1387.4,-183 -823.4,32.8 -1307,-139.3 -1108.8,-391.9 56.6,-71.9 139.4,-74 302.8,-8.7 111.1,43.6 169.9,47.9 860.3,61 827.7,17.4 1008.5,41.4 1396.1,187.3 108.9,41.4 204.7,74.1 211.3,74.1 6.6,0 34.8,-41.4 65.3,-91.5 30.5,-52.3 104.6,-143.8 167.7,-204.8 196,-196 710,-431.2 1235,-566.3 1840.5,-470.5 3755,261.4 4809.2,1842.7 289.7,433.4 374.6,712.2 309.3,1025.9 -145.9,721 -886.5,1091.2 -1531.2,764.5 C 7776.2,2235.8 7647.7,2109.4 7504,1872 7432.1,1756.6 7316.7,1593.2 7247,1510.4 6569.6,704.5 5413,467.1 4465.6,939.8 c -254.8,128.5 -368.1,156.8 -603.3,154.6 -145.9,0 -213.4,8.7 -213.4,24 0,52.3 -200.4,363.7 -315.8,487.9 -209.1,226.5 -444.3,368.1 -1045.5,636 -413.8,183 -616.4,307.1 -827.7,507.5 -196,182.9 -272.3,211.2 -359.4,124.1 z m 7677.8,-832 c 130.7,-69.7 272.3,-211.3 339.8,-344.1 61,-122 80.6,-370.3 41.4,-514 C 9126.8,1066.2 8943.9,756.9 8771.8,521.7 8597.6,288.6 8138,-162.2 7902.7,-327.8 6641.6,-1216.5 5053.7,-1355.9 3699,-696 c -389.9,191.7 -538,389.9 -540.2,727.5 0,154.6 8.7,191.7 71.9,320.2 78.4,159 189.5,270.1 350.7,348.5 82.8,41.4 135,50.1 307.1,50.1 200.4,-2.2 213.4,-4.4 413.8,-102.4 450.9,-220 773.2,-289.7 1285.1,-272.3 270.1,6.5 381.2,21.8 551.1,65.3 701.3,185.1 1263.3,609.9 1633.6,1230.6 191.7,324.5 389.9,446.5 712.2,433.5 148,-6.5 206.9,-19.6 294,-63.1 z" />
          </g>
          <g
             id="g230">
            <path
               style="fill:#000000;stroke:#000000;stroke-miterlimit:10;stroke-opacity:0"
               inkscape:connector-curvature="0"
               id="path232"
               stroke-miterlimit="10"
               d="m 3849.3,2656.1 c -152.5,-93.7 -169.9,-296.2 -37,-429.1 58.8,-58.8 89.3,-71.9 167.7,-71.9 106.7,0 217.8,58.8 259.2,135 39.2,71.9 32.7,215.6 -13.1,285.3 -80.6,124.3 -246.1,159.1 -376.8,80.7 z" />
          </g>
          <g
             id="g234">
            <path
               style="fill:#000000;stroke:#000000;stroke-miterlimit:10;stroke-opacity:0"
               inkscape:connector-curvature="0"
               id="path236"
               stroke-miterlimit="10"
               d="m 6245.2,2656.1 c -145.9,-89.3 -169.9,-285.3 -47.9,-420.4 56.6,-63.2 71.9,-69.7 196,-69.7 124.2,0 139.4,6.5 196,69.7 217.8,241.8 -67.5,588.1 -344.1,420.4 z" />
          </g>
          <g
             id="g238">
            <path
               style="fill:#000000;stroke:#000000;stroke-miterlimit:10;stroke-opacity:0"
               inkscape:connector-curvature="0"
               id="path240"
               stroke-miterlimit="10"
               d="m 5047.2,1784.9 c -145.9,-89.3 -169.9,-285.3 -50.1,-418.2 124.2,-139.4 376.8,-91.5 450.9,82.8 102.4,246.1 -172.1,474.8 -400.8,335.4 z" />
          </g>
          <g
             id="g242">
            <path
               style="fill:#000000;stroke:#000000;stroke-miterlimit:10;stroke-opacity:0"
               inkscape:connector-curvature="0"
               id="path244"
               stroke-miterlimit="10"
               d="m 9510.1,-81.8 c -106.7,-54.5 -161.2,-139.4 -161.2,-246.1 0,-217.8 248.3,-346.3 433.4,-226.5 56.6,37 117.6,156.8 117.6,226.5 0,69.7 -61,189.5 -117.6,226.5 -84.9,54.5 -189.4,63.2 -272.2,19.6 z" />
          </g>
          <g
             id="g246">
            <path
               style="fill:#000000;stroke:#000000;stroke-miterlimit:10;stroke-opacity:0"
               inkscape:connector-curvature="0"
               id="path248"
               stroke-miterlimit="10"
               d="m 2479.2,-1286.2 c -85,-52.3 -122,-115.4 -122,-217.8 0,-226.5 224.3,-355 416,-239.6 152.5,93.7 169.9,296.2 37,429.1 -58.8,58.8 -89.3,71.9 -165.5,71.9 -56.5,-0.1 -124.1,-17.5 -165.5,-43.6 z" />
          </g>
          <g
             id="g250">
            <path
               style="fill:#000000;stroke:#000000;stroke-miterlimit:10;stroke-opacity:0"
               inkscape:connector-curvature="0"
               id="path252"
               stroke-miterlimit="10"
               d="m 7941.9,-1477.9 c -80.6,-43.6 -154.6,-159 -154.6,-239.6 0,-28.3 13.1,-76.2 30.5,-108.9 122,-237.4 446.5,-211.3 514,41.4 61,222.1 -189.5,418.2 -389.9,307.1 z" />
          </g>
          <g
             id="g254">
            <path
               style="fill:#000000;stroke:#000000;stroke-miterlimit:10;stroke-opacity:0"
               inkscape:connector-curvature="0"
               id="path256"
               stroke-miterlimit="10"
               d="m 978.5,-1501.9 c -24,-10.9 -71.9,-50.1 -102.4,-89.3 -102.4,-122 -67.5,-318 71.9,-400.8 126.3,-74 304.9,-28.3 379,95.8 98,169.9 -13.1,387.7 -204.7,405.1 -54.4,4.5 -117.6,0.1 -143.8,-10.8 z" />
          </g>
          <g
             id="g258">
            <path
               style="fill:#000000;stroke:#000000;stroke-miterlimit:10;stroke-opacity:0"
               inkscape:connector-curvature="0"
               id="path260"
               stroke-miterlimit="10"
               d="m 9340.2,-1528 c -154.6,-43.6 -239.6,-239.6 -165.5,-381.2 119.8,-230.9 435.6,-193.8 511.9,58.8 19.6,67.5 17.4,93.7 -17.4,163.4 -67.6,137.2 -191.8,196 -329,159 z" />
          </g>
          <g
             id="g262">
            <path
               style="fill:#000000;stroke:#000000;stroke-miterlimit:10;stroke-opacity:0"
               inkscape:connector-curvature="0"
               id="path264"
               stroke-miterlimit="10"
               d="m 4435.2,-2087.8 c -167.7,-85 -196,-294 -56.6,-433.4 63.2,-63.2 87.1,-71.9 180.8,-71.9 85,0 124.2,13.1 176.4,54.4 154.7,132.9 128.5,370.3 -52.3,455.2 -93.7,45.8 -156.9,43.6 -248.3,-4.3 z" />
          </g>
          <g
             id="g266">
            <path
               style="fill:#000000;stroke:#000000;stroke-miterlimit:10;stroke-opacity:0"
               inkscape:connector-curvature="0"
               id="path268"
               stroke-miterlimit="10"
               d="m 6574.1,-2133.5 c -224.3,-102.4 -206.9,-420.4 28.3,-501 113.3,-39.2 191.7,-19.6 285.3,74.1 58.8,58.8 71.9,87.1 71.9,167.7 0,222.1 -187.3,348.5 -385.5,259.2 z" />
          </g>
          <g
             id="g270">
            <path
               style="fill:#000000;stroke:#000000;stroke-miterlimit:10;stroke-opacity:0"
               inkscape:connector-curvature="0"
               id="path272"
               stroke-miterlimit="10"
               d="m 3158.8,-2549.5 c -24,-8.7 -67.5,-43.6 -98,-76.2 -43.6,-47.9 -54.5,-80.6 -54.5,-178.6 0,-108.9 6.5,-124.2 80.6,-193.8 65.3,-58.8 100.2,-74.1 172.1,-74.1 163.4,0 281,113.3 281,272.3 0,195.9 -198.2,326.6 -381.2,250.4 z" />
          </g>
          <g
             id="g274">
            <path
               style="fill:#000000;stroke:#000000;stroke-miterlimit:10;stroke-opacity:0"
               inkscape:connector-curvature="0"
               id="path276"
               stroke-miterlimit="10"
               d="m 1756.1,-2717.2 c -91.5,-45.7 -165.5,-193.9 -143.7,-291.9 50.1,-222.2 333.2,-298.4 477,-126.3 117.6,137.2 82.8,331.1 -74,416 -93.7,47.9 -163.4,50.1 -259.3,2.2 z" />
          </g>
          <g
             id="g278">
            <path
               style="fill:#000000;stroke:#000000;stroke-miterlimit:10;stroke-opacity:0"
               inkscape:connector-curvature="0"
               id="path280"
               stroke-miterlimit="10"
               d="m 7941.9,-2893.7 c -80.6,-43.6 -154.6,-159 -154.6,-239.6 0,-28.3 13.1,-76.2 30.5,-108.9 122,-237.4 446.5,-211.3 514,41.4 61,222.2 -189.5,418.2 -389.9,307.1 z" />
          </g>
          <g
             id="g282">
            <path
               style="fill:#000000;stroke:#000000;stroke-miterlimit:10;stroke-opacity:0"
               inkscape:connector-curvature="0"
               id="path284"
               stroke-miterlimit="10"
               d="m 5343.4,-3150.7 c -119.8,-63.2 -163.4,-254.8 -89.3,-379 87.1,-150.3 311.5,-174.2 424.7,-45.7 115.4,128.5 106.7,283.1 -17.4,392.1 -87.1,76.2 -213.4,89.2 -318,32.6 z" />
          </g>
          <g
             id="g286">
            <path
               style="fill:#000000;stroke:#000000;stroke-miterlimit:10;stroke-opacity:0"
               inkscape:connector-curvature="0"
               id="path288"
               stroke-miterlimit="10"
               d="m 4003.9,-3769.3 c -130.7,-28.3 -202.6,-130.7 -202.6,-285.3 0,-71.9 13.1,-102.4 71.9,-161.2 93.7,-93.7 172.1,-113.3 285.3,-74.1 159,54.5 233.1,239.6 154.7,389.9 -52.3,100.2 -187.3,156.9 -309.3,130.7 z" />
          </g>
          <g
             id="g290">
            <path
               style="fill:#000000;stroke:#000000;stroke-miterlimit:10;stroke-opacity:0"
               inkscape:connector-curvature="0"
               id="path292"
               stroke-miterlimit="10"
               d="m 6622,-3828.1 c -250.5,-65.3 -278.8,-422.5 -39.2,-520.5 108.9,-45.8 215.6,-21.8 304.9,67.5 58.8,58.8 71.9,89.3 71.9,167.7 0,100.2 -58.8,217.8 -124.2,252.7 -54.4,28.3 -161.1,45.7 -213.4,32.6 z" />
          </g>
        </g>
      </g>
    </g>
  </g>
  <g
     id="g294"
     transform="matrix(0.04700449,0,0,0.04700449,315.6597,240.34385)">
    <g
       id="g296">
      <g
         id="g298">
        <g
           id="g300"
           transform="matrix(0.1,0,0,-0.1,0,512)">
          <g
             id="g302">
            <path
               style="fill:#000000;stroke:#000000;stroke-miterlimit:10;stroke-opacity:0"
               inkscape:connector-curvature="0"
               id="path304"
               stroke-miterlimit="10"
               d="m 5910.7,4993.2 c -294.9,-76.6 -480.7,-248.9 -557.3,-519 -44,-155.1 -26.8,-423.2 49.8,-746.8 84.2,-367.7 105.3,-553.4 78.5,-727.7 -72.8,-488.3 -390.6,-779.4 -854.1,-779.4 -329.4,0 -597.5,141.7 -746.8,394.5 -68.9,118.7 -158.9,383 -181.9,540 -9.6,72.8 -19.1,239.4 -19.1,371.5 -1.9,275.8 -24.9,486.4 -70.9,622.4 -44,137.9 -226,314 -379.2,371.5 -333.2,124.5 -723.9,40.2 -953.6,-206.8 -118.7,-130.2 -176.2,-237.5 -204.9,-381.1 -59.4,-312.1 199.2,-725.8 586,-940.2 317.9,-176.2 361.9,-206.8 494.1,-338.9 442.4,-442.4 474.9,-969 84.3,-1350 -226,-220.2 -589.8,-283.4 -932.6,-164.7 -212.6,74.7 -331.3,155.1 -589.8,402.1 -373.4,354.3 -593.6,478.7 -857.9,480.7 -130.2,1.9 -168.5,-5.7 -262.4,-51.7 C 365,1856.6 194.6,1646 127.6,1391.3 87.3,1238 91.2,1103.9 139,952.7 169.6,847.4 198.4,801.4 301.8,692.3 476.1,508.5 587.1,456.8 826.5,447.2 c 191.5,-7.7 289.2,5.7 794.7,113 226,47.9 316,57.4 421.3,49.8 350.4,-26.8 654.9,-233.6 808.1,-545.8 68.9,-139.8 72.8,-153.2 72.8,-338.9 0,-183.8 -3.8,-201.1 -70.9,-337.1 -199.2,-402.1 -612.8,-589.8 -1298.3,-591.7 -99.6,0 -235.5,-9.6 -302.6,-19.2 -270,-38.3 -540,-233.6 -660.7,-476.8 -57.4,-116.8 -61.3,-139.8 -61.3,-317.9 1.9,-153.2 9.6,-212.6 44,-300.6 176.2,-440.4 821.5,-609 1235.1,-323.6 101.5,68.9 160.9,145.5 243.2,308.3 226,453.8 557.3,787 894.3,901.9 180,61.3 429,61.3 586,0 373.4,-147.5 595.6,-643.4 482.6,-1083.9 -53.6,-206.8 -130.2,-329.4 -383,-599.4 -264.3,-281.5 -384.9,-440.4 -463.4,-609 -46,-95.7 -53.6,-137.9 -53.6,-275.8 0,-289.2 103.4,-492.1 321.7,-633.8 164.7,-107.2 291.1,-141.7 511.3,-139.8 143.6,0 206.8,9.6 296.8,46 151.3,59.4 296.8,204.9 377.2,377.2 55.5,118.7 61.3,145.5 59.4,312.1 -1.9,132.1 -21.1,270 -72.8,507.5 -166.6,769.8 -84.3,1149 300.7,1407.5 170.4,114.9 342.8,160.8 549.6,149.4 229.8,-13.4 373.4,-82.3 540,-260.4 231.7,-245.1 294.9,-432.8 325.5,-942.2 46,-758.3 128.3,-953.6 474.9,-1118.3 118.7,-55.5 139.8,-59.4 337,-59.4 197.2,0 218.3,3.8 338.9,61.3 308.3,145.5 457.7,415.5 430.9,773.6 -26.8,352.4 -243.2,666.4 -520.9,756.4 -248.9,82.4 -461.5,231.7 -612.8,432.8 -256.6,338.9 -325.5,718.1 -183.8,1014.9 151.3,319.8 551.5,518.9 921.1,457.7 304.5,-49.8 488.3,-157 819.6,-482.6 204.9,-201.1 270,-252.8 400.2,-319.8 86.2,-42.1 206.8,-88.1 268.1,-99.6 501.7,-105.3 938.3,302.6 900,842.6 -21.1,294.9 -155.1,515.1 -386.8,631.9 -132.1,67 -136,67 -383,67 -214.5,0 -287.2,-9.6 -526.6,-65.1 -317.9,-74.7 -631.9,-97.6 -810,-59.4 -271.9,55.5 -497.9,231.7 -612.8,474.9 -51.7,109.2 -61.3,155.1 -67,312.1 -11.5,289.2 55.5,476.8 239.4,670.2 212.5,224 461.5,298.7 1059,323.6 438.5,19.2 582.2,44 720,124.5 147.5,86.2 271.9,264.3 321.7,459.6 109.1,411.7 -99.6,846.4 -459.6,965.1 -342.8,113 -580.2,51.7 -875.1,-226 -136,-128.3 -293,-350.4 -388.7,-547.7 -80.4,-170.4 -306.4,-388.7 -492.1,-478.7 -296.8,-141.7 -557.3,-153.2 -813.9,-38.3 -304.5,136 -494.1,515.1 -442.4,886.6 23,159 44.1,229.8 118.7,377.3 91.9,183.8 158.9,271.9 406,526.6 180,185.8 247,268.1 291.1,363.8 124.5,266.2 134,517 26.8,735.3 -78.5,158.9 -247,317.9 -398.3,375.3 -137.8,52.1 -379,67.4 -513.1,31 z M 4344.3,841.6 c 256.6,-256.6 465.3,-478.7 465.3,-496 0,-19.2 -44,-51.7 -118.7,-86.2 -111.1,-51.7 -137.9,-55.5 -340.9,-55.5 -248.9,0 -325.5,26.8 -465.3,160.9 -124.5,116.8 -172.3,233.6 -181.9,434.7 -7.7,180 1.9,235.5 76.6,415.5 24.9,53.6 51.7,90 70.8,90 17.2,0 239.4,-208.7 494.1,-463.4 z M 6222.9,1215 c 74.7,-180 84.3,-235.5 76.6,-415.5 -9.6,-201.1 -57.5,-317.9 -181.9,-434.7 -139.8,-134 -216.4,-160.9 -465.3,-160.9 -203,0 -229.8,3.8 -339,55.5 -74.7,34.5 -120.6,67 -120.6,86.2 0,40.2 919.2,959.4 959.4,959.4 19,0 45.9,-34.5 70.8,-90 z M 6023.7,-410.8 c 118.7,-45.9 -141.7,-373.4 -404.1,-511.3 -551.5,-289.2 -1298.3,-139.8 -1602.8,319.8 -70.9,107.2 -86.2,174.3 -44,189.6 34.4,15.3 2014.5,15.3 2050.9,1.9 z" />
          </g>
        </g>
      </g>
    </g>
  </g>
  <g
     id="g306"
     transform="matrix(0,-0.03109719,0.03109719,0,462.1369,125.42288)">
    <g
       id="g308">
      <g
         id="g310">
        <g
           id="g312"
           transform="matrix(0.1,0,0,-0.1,0,511)">
          <g
             id="g314">
            <path
               style="fill:#000000;stroke:#000000;stroke-miterlimit:10;stroke-opacity:0"
               inkscape:connector-curvature="0"
               id="path316"
               stroke-miterlimit="10"
               d="m 4065.9,4889.6 c -67,-70.8 -57.4,-168.4 26.8,-256.5 38.3,-40.2 91.9,-116.7 116.8,-172.3 51.7,-112.9 76.6,-323.5 49.8,-426.8 -17.2,-67 -19.1,-67 -237.3,-124.4 -231.6,-61.3 -505.3,-158.9 -650.8,-231.6 l -88,-44 -40.2,128.2 c -78.5,245 -260.3,463.2 -468.9,568.5 -124.4,61.3 -193.3,61.3 -252.7,0 -88,-86.1 -55.5,-222 63.2,-271.8 160.8,-67 298.6,-231.6 356,-424.9 44,-147.4 40.2,-158.9 -51.7,-216.3 -160.8,-101.4 -396.2,-285.2 -549.3,-430.7 l -157,-147.4 -49.8,67 c -181.8,239.3 -501.5,419.2 -746.5,419.2 -86.1,0 -176.1,-88 -176.1,-172.3 0,-76.6 74.6,-153.1 149.3,-153.1 97.6,0 246.9,-57.4 348.4,-132.1 99.5,-76.6 229.7,-235.4 229.7,-283.3 0,-13.4 -45.9,-88 -101.4,-164.6 -135.9,-185.7 -241.2,-356 -336.9,-545.5 -76.6,-151.2 -101.5,-178 -126.3,-137.8 -19.1,30.6 -218.2,126.3 -333,160.8 -120.6,34.5 -377.1,40.2 -488.1,9.6 -155,-42.1 -210.5,-172.3 -118.7,-277.5 36.4,-44 57.4,-51.7 118.7,-47.9 42.1,3.8 147.4,7.7 237.3,9.6 147.4,1.9 176.1,-3.8 289,-59.3 67,-34.4 143.6,-82.3 168.4,-107.2 l 42.1,-47.9 -49.8,-162.7 C 1179.6,1021.3 1122.1,732.3 1103,535.1 1089.6,395.4 1089.6,393.4 1039.8,406.9 934.5,433.7 639.8,439.4 534.5,416.5 392.9,387.8 209.1,295.9 147.9,223.2 6.2,54.7 207.2,-127.2 387.1,4.9 526.8,108.3 808.2,140.8 980.5,75.7 l 86.1,-32.5 15.3,-143.6 c 36.4,-354.1 86.1,-641.2 139.7,-826.9 7.7,-24.9 -5.7,-34.4 -63.2,-44 -327.3,-49.8 -555.1,-176.1 -717.8,-400.1 -70.8,-97.6 -68.9,-170.3 1.9,-243.1 90,-90 135.9,-76.6 294.8,84.2 151.2,155 258.4,208.6 453.6,233.5 132.1,15.3 153.1,0 220.1,-162.7 67,-160.8 181.8,-371.3 312,-570.4 57.4,-88.1 99.5,-160.8 97.6,-162.7 -3.8,-1.9 -49.8,-24.9 -103.4,-51.7 -51.7,-24.9 -160.8,-111 -241.2,-191.4 -158.9,-158.9 -241.2,-302.4 -260.3,-459.4 -9.6,-82.3 -5.7,-97.6 38.3,-141.7 95.7,-93.8 243.1,-51.7 273.7,78.5 24.9,99.5 99.5,225.9 183.8,306.3 80.4,78.5 252.7,178 308.2,178 15.3,0 116.8,-90 227.8,-197.1 111,-109.1 279.4,-258.4 377.1,-329.2 95.7,-72.7 174.2,-132.1 174.2,-134 0,-3.8 -34.4,-42.1 -76.6,-88 -44,-45.9 -112.9,-153.1 -155,-237.4 -160.8,-325.4 -145.5,-643.1 32.5,-687.2 47.9,-13.4 147.4,26.8 172.3,67 7.7,13.4 15.3,93.8 17.2,181.8 1.9,135.9 11.5,176.1 63.2,281.4 36.4,72.7 99.5,158.9 155,210.5 l 93.8,88.1 237.4,-111 c 130.2,-63.2 338.8,-145.5 465.1,-185.7 126.3,-40.2 231.6,-72.7 235.4,-74.7 1.9,-1.9 -19.1,-63.2 -45.9,-135.9 -141.6,-367.5 -34.4,-888.1 183.8,-888.1 132.1,0 193.3,147.4 120.6,289 -24.9,47.9 -34.5,111 -34.5,237.4 0,157 5.7,185.7 65.1,304.3 55.5,112.9 68.9,128.2 105.3,118.7 23,-5.7 158.9,-19.1 302.4,-30.6 350.3,-26.8 417.3,-1.9 417.3,158.9 0,44 -15.3,78.5 -45.9,107.2 -42.1,38.3 -74.6,45.9 -302.4,59.3 -553.2,34.5 -968.5,147.4 -1450.9,394.3 -538,275.8 -995.4,685.4 -1330.4,1185 -629.7,941.7 -784.8,2067.2 -428.7,3139.1 524.5,1584.8 2097.8,2607 3751.6,2440.4 1422.1,-145.5 2610.7,-1094.9 3060.5,-2450 380.9,-1138.9 162.7,-2384.9 -583.8,-3340.1 -245,-312 -614.4,-641.2 -957,-851.8 -306.3,-189.5 -742.7,-363.7 -1106.3,-442.1 -183.8,-40.2 -227.8,-65.1 -277.5,-160.8 -162.7,-315.8 -72.7,-826.9 189.5,-1071.9 109.1,-101.4 183.8,-112.9 256.5,-38.3 74.7,72.7 65.1,160.8 -32.5,271.8 -44,49.8 -95.7,128.2 -114.8,172.3 -42.1,95.7 -63.2,277.5 -45.9,396.2 13.4,82.3 17.2,88 93.8,107.2 312,80.4 641.2,193.3 867.1,298.6 11.5,5.8 30.6,-26.8 44,-72.7 74.6,-252.7 277.5,-505.3 490,-610.6 134,-65.1 197.1,-61.3 258.4,15.3 76.6,99.5 36.4,208.6 -101.4,269.9 -155.1,68.9 -319.7,300.5 -350.3,493.8 l -11.5,80.4 120.6,80.4 c 176.1,118.7 350.3,254.6 526.4,413.4 l 153.1,139.7 32.5,-53.6 c 59.3,-101.4 268,-273.7 411.5,-342.6 109.1,-51.7 174.2,-68.9 281.4,-76.6 132.1,-7.7 143.6,-5.7 189.5,40.2 63.2,63.2 65.1,147.4 7.6,214.4 -34.5,38.3 -70.8,53.6 -160.8,65.1 -65.1,9.6 -153.1,36.3 -199.1,59.3 -112.9,57.4 -254.6,195.2 -296.7,287.1 -34.4,78.5 -34.4,78.5 11.5,139.7 128.3,172.3 298.6,442.2 382.8,610.6 l 93.8,187.6 101.4,-65.1 c 356,-235.4 932.2,-206.7 932.2,46 0,28.7 -21,74.6 -49.8,105.3 -45.9,49.7 -53.6,51.7 -147.4,36.4 -201,-32.5 -342.6,-19.1 -474.7,45.9 -67,30.6 -147.4,78.5 -178,105.3 l -57.4,45.9 49.8,170.3 c 63.2,212.5 103.3,405.8 132.1,647 19.1,153.1 28.7,183.8 53.6,174.2 15.3,-5.7 91.9,-21.1 168.4,-32.5 356,-55.5 786.7,122.5 790.5,325.4 0,55.5 -97.6,157 -153.1,157 -23,0 -90,-30.6 -149.3,-67 C 9419.7,106.4 9190,85.3 9000.5,160 c -76.6,30.6 -95.7,76.6 -95.7,245 0,109.1 -53.6,459.4 -97.6,627.8 -19.1,80.4 -36.4,151.2 -36.4,156.9 0,5.7 28.7,11.5 63.2,11.5 237.4,1.9 583.8,191.4 717.8,394.3 74.7,109.1 78.5,183.8 13.4,246.9 -68.9,70.8 -170.4,65.1 -237.4,-11.5 -172.3,-204.8 -313.9,-285.2 -532.1,-300.5 l -137.8,-9.6 -32.5,84.2 c -59.3,151.2 -246.9,503.4 -350.3,654.6 -55.5,82.3 -97.6,153.1 -93.8,155 1.9,3.8 57.4,34.5 120.6,68.9 237.4,132.1 459.4,426.8 482.4,639.3 9.6,76.6 3.8,91.9 -47.9,145.5 -107.2,107.2 -227.8,55.5 -279.5,-120.6 -51.7,-179.9 -225.9,-357.9 -413.4,-424.9 l -82.3,-28.7 -212.5,206.7 c -116.7,112.9 -285.2,260.3 -375.1,327.3 -90,68.9 -166.5,126.3 -170.4,128.2 -3.8,3.8 28.7,45.9 70.8,95.7 202.9,229.7 312,570.4 254.6,786.7 -38.3,137.8 -160.8,181.8 -264.1,93.8 -49.8,-42.1 -53.6,-55.5 -53.6,-197.2 -1.9,-118.7 -13.4,-172.3 -53.6,-260.3 -65.1,-141.7 -114.8,-212.5 -197.1,-273.7 l -67,-51.7 -224,107.2 c -179.9,84.2 -440.2,181.8 -691,254.6 -15.3,5.7 -19.1,21.1 -11.5,42.1 111,268 134,513 68.9,727.3 -53.6,178 -114.8,252.7 -210.5,252.7 -49.8,0 -84.2,-13.4 -111,-42.1 -61.3,-70.8 -65.1,-103.4 -15.3,-235.4 28.7,-76.6 47.9,-164.6 47.9,-227.8 0,-116.8 -59.3,-323.5 -111,-390.5 l -34.5,-45.9 -227.8,23 c -128.2,13.4 -346.5,21.1 -501.5,15.3 l -273.7,-9.6 0,135.9 c 0,268 -101.4,534 -258.4,692.9 -70.8,70.8 -97.6,84.2 -158.9,84.2 -51.8,0.1 -86.3,-13.3 -115,-43.9 z" />
          </g>
          <g
             id="g318">
            <path
               style="fill:#000000;stroke:#000000;stroke-miterlimit:10;stroke-opacity:0"
               inkscape:connector-curvature="0"
               id="path320"
               stroke-miterlimit="10"
               d="m 6043.1,3013.8 c -72.7,-61.3 -76.6,-162.7 -9.6,-233.5 95.7,-101.4 268,-34.4 268,105.3 0,91.9 -47.9,151.2 -135.9,164.6 -53.5,9.6 -78.4,1.9 -122.5,-36.4 z" />
          </g>
          <g
             id="g322">
            <path
               style="fill:#000000;stroke:#000000;stroke-miterlimit:10;stroke-opacity:0"
               inkscape:connector-curvature="0"
               id="path324"
               stroke-miterlimit="10"
               d="m 2783.5,2359.2 c -147.4,-124.4 -5.7,-335 178,-266.1 84.2,32.5 103.4,197.1 30.6,264.1 -63.1,57.5 -141.6,57.5 -208.6,2 z" />
          </g>
          <g
             id="g326">
            <path
               style="fill:#000000;stroke:#000000;stroke-miterlimit:10;stroke-opacity:0"
               inkscape:connector-curvature="0"
               id="path328"
               stroke-miterlimit="10"
               d="m 4243.9,2384.1 c -141.6,-49.8 -227.8,-183.7 -216.3,-335 15.3,-176.1 139.7,-292.9 310.1,-292.9 168.4,0 300.5,105.3 329.2,262.2 28.7,149.3 -82.3,325.4 -231.6,367.5 -89.9,25 -114.8,25 -191.4,-1.8 z" />
          </g>
          <g
             id="g330">
            <path
               style="fill:#000000;stroke:#000000;stroke-miterlimit:10;stroke-opacity:0"
               inkscape:connector-curvature="0"
               id="path332"
               stroke-miterlimit="10"
               d="m 6420.2,2196.5 c -134,-82.3 -149.3,-260.3 -32.5,-377.1 55.5,-55.5 74.7,-63.2 162.7,-63.2 88,0 107.2,7.7 162.7,63.2 36.4,36.4 68.9,91.9 76.6,132.1 26.8,141.6 -91.9,283.3 -239.3,283.3 -36.4,0 -95.7,-17.2 -130.2,-38.3 z" />
          </g>
          <g
             id="g334">
            <path
               style="fill:#000000;stroke:#000000;stroke-miterlimit:10;stroke-opacity:0"
               inkscape:connector-curvature="0"
               id="path336"
               stroke-miterlimit="10"
               d="m 2957.7,1365.8 c -312,-145.5 -476.6,-583.8 -379,-1003 57.4,-245 187.6,-424.9 369.4,-514.9 145.5,-70.8 346.4,-74.6 495.8,-7.7 532.1,237.3 547.4,1249.9 21,1512.1 -155,78.6 -354.1,84.3 -507.2,13.5 z M 3350,1048.1 c 197.2,-120.6 233.5,-618.2 59.3,-828.8 -99.5,-120.6 -262.2,-137.8 -377.1,-42.1 -97.6,82.3 -145.5,222 -147.4,430.7 0,160.8 5.7,195.2 53.6,290.9 32.5,65.1 78.5,124.4 114.8,147.4 80.6,51.6 212.6,51.6 296.8,1.9 z" />
          </g>
          <g
             id="g338">
            <path
               style="fill:#000000;stroke:#000000;stroke-miterlimit:10;stroke-opacity:0"
               inkscape:connector-curvature="0"
               id="path340"
               stroke-miterlimit="10"
               d="M 3095.5,713.1 C 2992.1,611.7 3066.8,447 3214.2,447 c 76.6,0 158.9,74.6 158.9,143.6 0,53.6 -49.8,143.6 -86.1,158.9 -67.1,24.9 -145.6,11.5 -191.5,-36.4 z" />
          </g>
          <g
             id="g342">
            <path
               style="fill:#000000;stroke:#000000;stroke-miterlimit:10;stroke-opacity:0"
               inkscape:connector-curvature="0"
               id="path344"
               stroke-miterlimit="10"
               d="m 5080.4,1073 c -42.1,-17.2 -84.2,-120.6 -70.8,-178 26.8,-122.5 174.2,-164.6 268,-76.6 99.5,93.8 34.5,269.9 -101.4,266.1 -38.4,-0.1 -82.4,-5.8 -95.8,-11.5 z" />
          </g>
          <g
             id="g346">
            <path
               style="fill:#000000;stroke:#000000;stroke-miterlimit:10;stroke-opacity:0"
               inkscape:connector-curvature="0"
               id="path348"
               stroke-miterlimit="10"
               d="M 6014.4,730.3 C 5392.4,567.6 4963.6,-83.1 5007.6,-799 c 24.9,-423 179.9,-759.9 480.4,-1039.3 612.5,-570.4 1537,-380.9 1940.9,398.1 124.4,241.2 158.9,375.1 168.4,679.5 9.6,296.7 -9.6,417.3 -105.3,666.1 -155,396.2 -511.1,725.4 -895.8,825 -147.3,38.2 -438.2,38.2 -581.8,-0.1 z m 664.2,-380.9 c 202.9,-99.5 357.9,-258.4 463.2,-472.8 103.3,-212.5 135.9,-348.4 135.9,-580 0,-231.6 -32.5,-369.4 -134,-574.2 -91.9,-187.6 -193.3,-308.2 -346.4,-409.6 -269.9,-179.9 -585.7,-202.9 -876.7,-63.2 -153.1,72.7 -361.8,285.2 -447.9,455.5 -112.9,222.1 -135.9,331.2 -135.9,601 0,212.5 5.7,256.5 53.6,392.4 68.9,201 157,342.6 292.9,470.9 220.1,208.6 377.1,269.9 660.4,260.3 172.2,-7.5 200.9,-13.3 334.9,-80.3 z" />
          </g>
          <g
             id="g350">
            <path
               style="fill:#000000;stroke:#000000;stroke-miterlimit:10;stroke-opacity:0"
               inkscape:connector-curvature="0"
               id="path352"
               stroke-miterlimit="10"
               d="m 5980,-565.5 c -86.1,-26.8 -225.9,-155 -277.5,-250.8 -30.6,-59.3 -40.2,-111 -40.2,-212.5 0,-162.7 42.1,-256.5 168.4,-367.5 313.9,-275.6 796.3,-49.8 796.3,375.2 -0.1,325.5 -329.3,559 -647,455.6 z m 273.7,-348.3 c 99.5,-97.6 30.6,-277.5 -105.3,-277.5 -76.6,0 -172.3,90 -172.3,162.7 0,30.6 23,72.7 55.5,107.2 72.8,70.7 157,74.6 222.1,7.6 z" />
          </g>
          <g
             id="g354">
            <path
               style="fill:#000000;stroke:#000000;stroke-miterlimit:10;stroke-opacity:0"
               inkscape:connector-curvature="0"
               id="path356"
               stroke-miterlimit="10"
               d="m 7995.5,387.7 c -70.8,-68.9 -65.1,-164.6 11.5,-227.8 76.6,-65.1 141.7,-63.2 210.6,5.7 61.3,63.2 68.9,111 26.8,191.4 -47.9,93.9 -172.3,109.2 -248.9,30.7 z" />
          </g>
          <g
             id="g358">
            <path
               style="fill:#000000;stroke:#000000;stroke-miterlimit:10;stroke-opacity:0"
               inkscape:connector-curvature="0"
               id="path360"
               stroke-miterlimit="10"
               d="m 3746.3,-588.4 c -90,-88 -45.9,-239.3 80.4,-269.9 101.4,-26.8 216.3,88 189.5,189.5 -30.7,126.3 -181.9,170.3 -269.9,80.4 z" />
          </g>
          <g
             id="g362">
            <path
               style="fill:#000000;stroke:#000000;stroke-miterlimit:10;stroke-opacity:0"
               inkscape:connector-curvature="0"
               id="path364"
               stroke-miterlimit="10"
               d="m 2444.7,-1239.2 c -65.1,-63.2 -65.1,-166.5 0,-229.7 65.1,-67 149.3,-63.2 224,9.6 47.9,49.7 55.5,68.9 45.9,120.6 -24.9,133.9 -179.9,191.3 -269.9,99.5 z" />
          </g>
          <g
             id="g366">
            <path
               style="fill:#000000;stroke:#000000;stroke-miterlimit:10;stroke-opacity:0"
               inkscape:connector-curvature="0"
               id="path368"
               stroke-miterlimit="10"
               d="m 3639.1,-2383.8 c -76.6,-51.7 -126.3,-170.4 -105.3,-252.7 7.7,-28.7 42.1,-82.3 78.5,-118.7 55.5,-55.5 74.6,-63.2 162.7,-63.2 88.1,0 107.2,7.7 162.7,63.2 210.5,210.6 -51.7,537.9 -298.6,371.4 z" />
          </g>
          <g
             id="g370">
            <path
               style="fill:#000000;stroke:#000000;stroke-miterlimit:10;stroke-opacity:0"
               inkscape:connector-curvature="0"
               id="path372"
               stroke-miterlimit="10"
               d="m 5407.7,-2854.7 c -74.7,-45.9 -95.7,-130.2 -55.5,-208.6 32.5,-63.2 65.1,-80.4 153.1,-80.4 130.2,0 197.2,174.2 103.4,264.1 -65.1,59.4 -130.2,67 -201,24.9 z" />
          </g>
        </g>
      </g>
    </g>
  </g>
  <g
     id="g374"
     transform="matrix(0,-0.04442819,0.04442819,0,209.7996,240.86891)">
    <g
       id="g376">
      <g
         id="g378">
        <g
           id="g380"
           transform="matrix(0.1,0,0,-0.1,0,512)">
          <g
             id="g382">
            <path
               style="fill:#000000;stroke:#000000;stroke-miterlimit:10;stroke-opacity:0"
               inkscape:connector-curvature="0"
               id="path384"
               stroke-miterlimit="10"
               d="m 3526.7,4990.1 c -78.5,-38.3 -132.2,-103.4 -155.2,-191.5 -15.3,-53.6 -1.9,-149.4 67,-490.4 46,-231.8 84.3,-436.7 84.3,-454 0,-19.2 -38.3,-49.8 -97.7,-78.5 -53.6,-24.9 -145.6,-76.6 -204.9,-114.9 l -105.4,-69 -272,318 c -222.2,260.5 -285.4,323.7 -356.3,352.4 -72.8,30.6 -97.7,32.6 -168.6,13.4 -105.4,-28.7 -182,-103.4 -214.5,-206.9 -40.2,-136 -7.7,-195.4 298.8,-557.4 153.2,-180 277.7,-331.4 277.7,-337.1 0,-7.7 -32.6,-61.3 -74.7,-120.7 -40.2,-59.4 -99.6,-162.8 -132.2,-227.9 l -59.4,-116.8 -369.5,199.2 c -327.5,176.2 -381.2,199.2 -465.5,199.2 -243.3,0 -381.2,-275.8 -233.7,-465.5 32.6,-42.1 180.1,-132.2 471.2,-289.2 233.7,-124.5 423.3,-227.9 423.3,-229.9 -30.6,-141.7 -136,-499.9 -147.5,-498 -7.7,1.9 -227.9,72.8 -488.4,159 -436.7,143.7 -480.8,155.2 -549.7,136 C 908.2,1881.3 822,1774 822,1632.3 c 0,-91.9 38.3,-172.4 105.4,-226 26.8,-23 262.4,-111.1 522.9,-197.3 260.5,-86.2 486.5,-162.8 501.9,-172.4 26.8,-13.4 26.8,-38.3 -7.7,-245.2 l -36.4,-231.8 -183.9,0 c -101.5,1.9 -346.7,9.6 -547.8,19.2 C 824,594.1 810.5,594.1 728.2,553.9 603.7,492.6 563.5,427.5 563.5,291.5 563.5,165 601.8,96 705.2,34.7 756.9,4.1 835.5,-3.6 1297.1,-20.8 c 291.2,-9.6 532.5,-21.1 536.3,-23 9.6,-7.7 -21.1,-467.4 -34.5,-488.4 -7.7,-11.5 -252.8,-63.2 -547.8,-114.9 -295,-51.7 -565,-109.3 -601.4,-128.4 -36.4,-19.2 -86.2,-65.1 -111.1,-101.5 -38.3,-55.6 -44.1,-84.3 -38.3,-178.1 7.7,-93.9 17.2,-118.8 72.8,-176.2 113,-116.9 147.5,-116.9 687.7,-19.2 264.3,47.9 494.2,86.2 509.5,86.2 24.9,0 28.7,-38.3 28.7,-247.1 l 0,-247.1 -339,-137.9 c -187.7,-76.6 -409.9,-166.7 -494.2,-201.1 -84.3,-34.5 -176.2,-86.2 -205,-113 -105.3,-103.4 -116.8,-281.6 -23,-392.7 59.4,-70.9 197.3,-126.4 270.1,-109.2 28.7,7.6 224.1,82.4 432.9,166.6 208.8,86.2 381.2,151.3 385,149.4 1.9,-3.8 19.2,-82.4 36.4,-174.3 19.2,-91.9 36.4,-178.1 42.1,-191.5 3.8,-15.3 -122.6,-118.8 -310.3,-254.7 -402.3,-289.2 -459.7,-341 -486.5,-431 -57.5,-191.5 90,-383.1 295,-383.1 76.6,0 145.6,42.1 499.9,304.6 l 266.3,197.3 120.7,-130.3 c 67,-72.8 120.7,-137.9 122.6,-143.7 0,-7.7 -116.9,-210.7 -258.6,-450.1 -241.4,-408 -258.6,-444.4 -258.6,-536.3 0,-116.9 51.7,-205 153.2,-260.5 84.3,-46 220.3,-38.3 302.6,19.2 36.4,26.8 153.2,205 327.5,500 l 272,455.9 237.5,-1.9 239.4,-1.9 -13.4,-182 c -7.7,-99.6 -13.4,-266.3 -15.3,-367.8 0,-159 5.7,-191.5 40.2,-239.4 134.1,-178.1 396.5,-166.7 498,24.9 36.4,63.2 44,128.3 63.2,457.8 34.5,578.5 -5.7,499.9 319.9,651.3 151.3,72.8 279.7,126.4 283.5,122.6 3.8,-3.8 26.8,-180.1 47.9,-390.8 36.4,-329.5 47.9,-392.7 88.1,-452 59.4,-92 162.8,-139.8 273.9,-126.4 109.2,11.5 174.3,61.3 227.9,168.6 l 44.1,84.3 -53.6,498 c -30.7,273.9 -51.7,505.7 -47.9,513.3 17.2,28.7 471.2,245.2 484.6,229.9 7.6,-7.6 46,-132.1 86.2,-273.9 38.3,-141.7 82.4,-304.6 97.7,-358.2 74.7,-256.7 340.9,-329.5 513.3,-139.8 61.3,69 69,88.1 69,178.1 -1.9,61.3 -44.1,252.9 -114.9,501.9 -61.3,222.2 -111.1,402.2 -109.2,404.2 1.9,0 130.3,70.9 285.4,155.2 l 281.6,155.1 350.5,-383.1 c 191.5,-210.7 375.4,-396.5 408,-411.8 122.6,-65.1 293.1,-23 379.3,93.9 53.6,72.8 63.2,218.4 19.2,296.9 -19.2,32.5 -172.4,208.8 -339.1,390.8 l -304.5,331.4 53.6,40.2 c 30.6,21.1 130.2,101.5 224.1,178.1 l 170.5,139.8 415.7,-266.2 c 501.9,-321.8 480.8,-310.3 578.5,-310.3 239.4,0 377.4,262.4 243.3,467.4 -15.3,23 -218.4,160.9 -452.1,308.4 -296.9,189.6 -421.4,275.8 -413.7,296.9 3.8,15.3 26.8,84.3 51.7,153.2 24.9,68.9 44.1,126.4 44.1,126.4 0,1.9 241.3,40.2 536.3,84.3 333.3,47.9 561.2,91.9 603.4,113 210.7,107.3 206.9,408 -7.7,517.2 l -90,46 -482.7,-70.9 c -266.3,-40.2 -505.7,-76.6 -532.5,-82.4 -46,-7.7 -51.7,0 -92,113 -24.9,65.1 -78.5,185.8 -118.8,264.3 -40.2,78.5 -67,147.5 -59.4,155.2 7.7,7.7 203.1,114.9 434.8,235.6 258.6,136 444.4,247.1 480.8,287.3 170.5,180.1 40.2,477 -210.7,480.8 -90,0 -139.8,-23 -574.6,-254.8 -260.5,-137.9 -482.7,-252.9 -490.4,-252.9 -24.9,0 -272,348.6 -254.7,363.9 7.6,7.7 187.7,136 398.4,287.3 446.3,318 501.9,365.9 528.7,463.6 55.6,210.7 -149.4,419.5 -356.3,362 -36.4,-9.6 -264.3,-160.9 -505.7,-335.2 L 6972.6,1749.4 6823.2,1941 c -82.4,105.4 -149.4,197.3 -149.4,205 0,9.6 172.4,168.6 385,354.4 210.7,185.8 394.6,360.1 406.1,386.9 57.5,124.5 7.7,306.5 -101.5,373.5 -180.1,111.1 -241.3,84.3 -703,-319.9 -208.8,-183.9 -386.9,-331.4 -394.6,-327.5 -7.7,3.8 -82.4,76.6 -164.7,162.8 -99.6,105.4 -143.7,164.7 -134.1,182 9.6,13.4 120.7,170.5 250.9,348.6 130.3,176.2 243.3,354.4 254.7,392.7 47.9,176.2 -99.6,365.9 -285.4,365.9 -130.3,0 -195.4,-57.5 -442.5,-400.3 -155.2,-212.6 -243.3,-319.9 -256.7,-310.3 -11.5,9.6 -97.7,74.7 -193.5,145.6 -93.9,70.9 -178.1,134.1 -187.7,141.7 -7.7,7.7 82.4,212.6 199.2,454 199.2,413.8 212.6,444.4 205,536.3 -9.6,116.8 -55.6,185.8 -160.9,237.5 -99.6,49.8 -151.3,47.9 -256.7,-3.8 -84.3,-44.1 -91.9,-53.6 -312.2,-498 l -224.1,-452.1 -69,19.2 c -38.3,9.6 -137.9,24.9 -224.1,30.6 l -155.2,13.4 -88.1,434.8 c -59.4,300.7 -99.6,450.1 -126.4,486.5 -84.1,112.6 -243.1,152.8 -367.6,89.6 z M 4427,2618.7 c 490.4,-103.4 1130.1,-593.8 1701,-1302.5 570.8,-710.6 848.5,-1298.7 848.5,-1791 0,-229.9 -36.4,-360.1 -149.4,-530.6 -97.7,-147.5 -210.7,-226 -768.1,-538.3 -965.4,-540.2 -1557.3,-819.8 -2189.4,-1032.4 -486.5,-164.7 -634,-159 -812.2,28.7 -235.6,252.8 -319.9,637.9 -319.9,1469.2 0,1534.3 308.4,2944.1 750.9,3426.8 228,251 570.8,348.7 938.6,270.1 z" />
          </g>
          <g
             id="g386">
            <path
               style="fill:#000000;stroke:#000000;stroke-miterlimit:10;stroke-opacity:0"
               inkscape:connector-curvature="0"
               id="path388"
               stroke-miterlimit="10"
               d="m 4042,1509.7 c -178.1,-63.2 -295,-235.6 -296.9,-432.9 -1.9,-262.4 193.5,-459.7 457.8,-459.7 182,0 327.5,90 417.6,258.6 57.5,107.3 55.6,296.9 -1.9,404.2 -107.3,206.8 -362.1,308.3 -576.6,229.8 z" />
          </g>
          <g
             id="g390">
            <path
               style="fill:#000000;stroke:#000000;stroke-miterlimit:10;stroke-opacity:0"
               inkscape:connector-curvature="0"
               id="path392"
               stroke-miterlimit="10"
               d="m 5208.5,841.2 c -97.7,-30.6 -201.1,-143.7 -227.9,-249 -67,-272 170.5,-507.6 438.6,-436.7 97.7,26.8 203.1,114.9 241.4,206.9 80.4,187.7 -38.3,429.1 -237.5,484.6 -86.2,22.9 -126.5,21 -214.6,-5.8 z" />
          </g>
          <g
             id="g394">
            <path
               style="fill:#000000;stroke:#000000;stroke-miterlimit:10;stroke-opacity:0"
               inkscape:connector-curvature="0"
               id="path396"
               stroke-miterlimit="10"
               d="m 3750.8,-82.1 c -373.5,-120.7 -561.2,-551.7 -392.7,-898.4 67,-136 229.9,-285.4 360.1,-329.5 312.2,-109.2 653.2,28.7 798.8,319.9 134.1,270.1 76.6,565.1 -151.3,771.9 -44.1,40.2 -120.7,90 -166.7,111.1 -112.9,49.9 -333.2,63.3 -448.2,25 z" />
          </g>
        </g>
      </g>
    </g>
  </g>
  <g
     id="g398"
     transform="matrix(0,-1,1,0,309.5702,74.874047)">
    <g
       id="g400">
      <g
         id="g402"
         transform="scale(0.5,0.50625974)">
        <g
           id="g404">
          <path
             style="fill:#ffffff;fill-opacity:0.00799997;stroke:none"
             inkscape:connector-curvature="0"
             id="path406"
             d="m 100,50 a 50,50 0 1 0 -2.5e-5,0.05 z" />
          <g
             id="g408"
             transform="scale(2,1.9752706)">
            <path
               style="fill:none;stroke:#08233f;stroke-width:2;stroke-miterlimit:10"
               inkscape:connector-curvature="0"
               id="path410"
               stroke-miterlimit="10"
               d="m 25,0 m 0,0 C 38.807117,0 50,11.333012 50,25.312987 50,39.292962 38.807117,50.625974 25,50.625974 11.192883,50.625974 0,39.292962 0,25.312987 0,11.333012 11.192883,0 25,0 Z" />
          </g>
        </g>
      </g>
    </g>
  </g>
  <g
     id="g412"
     transform="matrix(0,-1,1,0,375.7225,111.0202)">
    <g
       id="g414">
      <g
         id="g416"
         transform="scale(0.49381766,0.5)">
        <g
           id="g418">
          <path
             style="fill:#ffffff;fill-opacity:0.00799997;stroke:none"
             inkscape:connector-curvature="0"
             id="path420"
             d="m 100,50 a 50,50 0 1 0 -2.5e-5,0.05 z" />
          <g
             id="g422"
             transform="scale(2.025039,2)">
            <path
               style="fill:none;stroke:#08233f;stroke-width:2;stroke-miterlimit:10"
               inkscape:connector-curvature="0"
               id="path424"
               stroke-miterlimit="10"
               d="m 24.690883,0 m 0,0 c 13.636397,0 24.690883,11.192883 24.690883,25 0,13.807117 -11.054486,25 -24.690883,25 C 11.054486,50 0,38.807117 0,25 0,11.192883 11.054486,0 24.690883,0 Z" />
          </g>
        </g>
      </g>
    </g>
  </g>
  <g
     id="g426"
     transform="translate(355.6962,45.374047)">
    <g
       id="g428">
      <g
         id="g430"
         transform="translate(-1833.0241,-695.30759)">
        <g
           id="g432">
          <path
             style="fill:none;stroke:#0b599f;stroke-width:2;stroke-miterlimit:10"
             inkscape:connector-curvature="0"
             id="path434"
             stroke-miterlimit="10"
             d="m 1837.5241,699.80759 7.7631,0 0,36.45527 7.7632,0" />
        </g>
      </g>
    </g>
  </g>
  <g
     id="g436"
     transform="translate(355.6962,21.190877)">
    <g
       id="g438">
      <g
         id="g440"
         transform="translate(-1833.0241,-671.12442)">
        <g
           id="g442">
          <path
             style="fill:none;stroke:#0b599f;stroke-width:2;stroke-miterlimit:10"
             inkscape:connector-curvature="0"
             id="path444"
             stroke-miterlimit="10"
             d="m 1837.5241,699.80759 7.4502,0 0,-24.18317 7.4501,0" />
        </g>
      </g>
    </g>
  </g>
  <g
     id="g446"
     transform="matrix(0,-1,1,0,375.0965,50.381767)">
    <g
       id="g448">
      <g
         id="g450"
         transform="scale(0.49381766,0.5)">
        <g
           id="g452">
          <path
             style="fill:#ffffff;fill-opacity:0.00799997;stroke:none"
             inkscape:connector-curvature="0"
             id="path454"
             d="m 100,50 a 50,50 0 1 0 -2.5e-5,0.05 z" />
          <g
             id="g456"
             transform="scale(2.025039,2)">
            <path
               style="fill:none;stroke:#08233f;stroke-width:2;stroke-miterlimit:10"
               inkscape:connector-curvature="0"
               id="path458"
               stroke-miterlimit="10"
               d="m 24.690883,0 m 0,0 c 13.636397,0 24.690883,11.192883 24.690883,25 0,13.807117 -11.054486,25 -24.690883,25 C 11.054486,50 0,38.807117 0,25 0,11.192883 11.054486,0 24.690883,0 Z" />
          </g>
        </g>
      </g>
    </g>
  </g>
  <g
     id="g460"
     transform="translate(253.0133,45.374047)">
    <g
       id="g462">
      <g
         id="g464"
         transform="translate(-1730.3412,-695.30759)">
        <g
           id="g466">
          <path
             style="fill:none;stroke:#0b599f;stroke-width:2;stroke-miterlimit:10"
             inkscape:connector-curvature="0"
             id="path468"
             stroke-miterlimit="10"
             d="m 1734.8412,771.06089 26.0285,0 0,-71.2533 26.0284,0" />
        </g>
      </g>
    </g>
  </g>
  <g
     id="g470"
     transform="matrix(0,-1,1,0,452.6857,192.18689)">
    <g
       id="g472">
      <g
         id="g474"
         transform="scale(0.49381766,0.5)">
        <g
           id="g476">
          <path
             style="fill:#ffffff;fill-opacity:0.00799997;stroke:none"
             inkscape:connector-curvature="0"
             id="path478"
             d="m 100,50 a 50,50 0 1 0 -2.5e-5,0.05 z" />
          <g
             id="g480"
             transform="scale(2.025039,2)">
            <path
               style="fill:none;stroke:#08233f;stroke-width:2;stroke-miterlimit:10"
               inkscape:connector-curvature="0"
               id="path482"
               stroke-miterlimit="10"
               d="m 24.690883,0 m 0,0 c 13.636397,0 24.690883,11.192883 24.690883,25 0,13.807117 -11.054486,25 -24.690883,25 C 11.054486,50 0,38.807117 0,25 0,11.192883 11.054486,0 24.690883,0 Z" />
          </g>
        </g>
      </g>
    </g>
  </g>
  <g
     id="g484"
     transform="translate(420.5965,141.00912)">
    <g
       id="g486">
      <g
         id="g488"
         transform="translate(-1897.9244,-790.94266)">
        <g
           id="g490">
          <path
             style="fill:none;stroke:#0b599f;stroke-width:2;stroke-miterlimit:10"
             inkscape:connector-curvature="0"
             id="path492"
             stroke-miterlimit="10"
             d="m 1902.4244,795.44266 13.7946,0 0,21.98689 13.7946,0" />
        </g>
      </g>
    </g>
  </g>
  <g
     id="g494"
     transform="matrix(0,-1,1,0,206.8873,146.12735)">
    <g
       id="g496">
      <g
         id="g498"
         transform="scale(0.5,0.50625974)">
        <g
           id="g500">
          <path
             style="fill:#ffffff;fill-opacity:0.00799997;stroke:none"
             inkscape:connector-curvature="0"
             id="path502"
             d="m 100,50 a 50,50 0 1 0 -2.5e-5,0.05 z" />
          <g
             id="g504"
             transform="scale(2,1.9752706)">
            <path
               style="fill:none;stroke:#08233f;stroke-width:2;stroke-miterlimit:10"
               inkscape:connector-curvature="0"
               id="path506"
               stroke-miterlimit="10"
               d="m 25,0 m 0,0 C 38.807117,0 50,11.333012 50,25.312987 50,39.292962 38.807117,50.625974 25,50.625974 11.192883,50.625974 0,39.292962 0,25.312987 0,11.333012 11.192883,0 25,0 Z" />
          </g>
        </g>
      </g>
    </g>
  </g>
  <g
     id="g508"
     transform="translate(121.2961,116.62735)">
    <g
       id="g510">
      <g
         id="g512"
         transform="translate(-1598.624,-766.56089)">
        <g
           id="g514">
          <path
             style="fill:none;stroke:#0b599f;stroke-width:2;stroke-miterlimit:10"
             inkscape:connector-curvature="0"
             id="path516"
             stroke-miterlimit="10"
             d="m 1684.2152,771.06089 -39.5456,0 0,43.39285 -41.5456,0" />
        </g>
      </g>
    </g>
  </g>
</svg>
